<svg width="431" height="167" viewBox="0 0 431 167" fill="none" xmlns="http://www.w3.org/2000/svg">
<path fill-rule="evenodd" clip-rule="evenodd" d="M183 155.9H299.3L313.6 135.9L299.3 115.5H148.7V115.6H90.4V155.9H148.7H183Z" fill="#F8CBAD"/>
<path fill-rule="evenodd" clip-rule="evenodd" d="M276.3 75.2H392.6L406.9 55.1L392.6 34.8H242H120.7V75.2H242H276.3Z" fill="#C55A11"/>
<path fill-rule="evenodd" clip-rule="evenodd" d="M292.5 75.2C112 75.2 112 75.2 112 75.2C112 115.6 112 115.6 112 115.6C292 115.6 292 115.6 292 115.6C323.4 115.6 323.4 115.6 323.4 115.6C323.7 115.6 324 115.6 324.3 115.6C416.5 115.6 416.5 115.6 416.5 115.6C430.9 95.6 430.9 95.6 430.9 95.6C416.5 75.2 416.5 75.2 416.5 75.2C324.3 75.2 324.3 75.2 324.3 75.2C324.2 75.2 324.1 75.2 324 75.2H292.5Z" fill="#F4B183"/>
<path fill-rule="evenodd" clip-rule="evenodd" d="M125.7 35.1C112 16.6 85 0.299988 84.5 0.299988C84.5 18.3 84.5 30.9 84.5 48.9C101.4 59.3 111.2 65.2 125.7 75.8C125.7 65.1 125.7 45.6 125.7 35.1Z" fill="#843C0C"/>
<path fill-rule="evenodd" clip-rule="evenodd" d="M125.7 75.2C112 64.1 99.5 58.3 84.5 48.1C84.5 65.9 84.5 86.6 84.5 104.5C98.2 108.2 112 111.8 125.7 115.5C125.7 105.1 125.7 85.7 125.7 75.2Z" fill="#C55A11"/>
<path fill-rule="evenodd" clip-rule="evenodd" d="M0.700012 0.200012H84.6V48.5H0.700012V0.200012Z" fill="#C55A11"/>
<path fill-rule="evenodd" clip-rule="evenodd" d="M0.700012 48.5H84.6V104.3H0.700012V48.5Z" fill="#F4B183"/>
<path fill-rule="evenodd" clip-rule="evenodd" d="M0.700012 103.6H84.6V166.4H0.700012V103.6Z" fill="#F8CBAD"/>
<path fill-rule="evenodd" clip-rule="evenodd" d="M125.6 155.4C111.9 159.1 98.1 162.7 84.4 166.4C84.4 148.6 84.4 121.5 84.4 103.6C98.1 107.4 111.9 111 125.6 114.7C125.6 125.1 125.6 144.9 125.6 155.4Z" fill="#F4B183"/>
<path d="M62.4341 53.1788H45.5266C44.3064 53.1788 43.2606 54.1375 43.2606 55.4448V64.6829C43.2606 65.903 44.2193 66.9488 45.5266 66.9488H52.7602V68.6919H47.5311C46.921 68.6919 46.4852 69.1276 46.4852 69.7377V70.0863C46.4852 70.6964 46.921 71.1322 47.5311 71.1322H60.4296C61.0396 71.1322 61.4754 70.6964 61.4754 70.0863V69.7377C61.4754 69.1276 61.0396 68.6919 60.4296 68.6919H55.2004V66.9488H62.4341C63.6542 66.9488 64.7 65.9902 64.7 64.6829V55.3576C64.6129 54.1375 63.6542 53.1788 62.4341 53.1788ZM62.5212 64.6829C62.5212 64.77 62.5212 64.77 62.4341 64.77H45.5266C45.4394 64.77 45.4394 64.77 45.4394 64.6829V55.3576C45.4394 55.2705 45.4394 55.2705 45.5266 55.2705H62.4341C62.5212 55.2705 62.5212 55.2705 62.5212 55.3576V64.6829V64.6829Z" fill="white"/>
<path d="M33.8482 64.2471H34.0225C35.4169 64.2471 36.7242 63.637 37.5957 62.7655C38.2929 61.9812 38.7287 61.0225 38.7287 59.9766V55.4448C38.7287 53.7017 37.5957 52.2202 36.027 51.5229C35.4169 51.1743 34.7197 51 33.9353 51H33.761C32.6281 51 31.5822 51.4358 30.7979 52.2201C29.8392 53.0045 29.142 54.1375 29.142 55.4448V59.9766C29.142 61.0225 29.5777 62.0683 30.2749 62.7655C31.2336 63.7242 32.4537 64.2471 33.8482 64.2471Z" fill="white"/>
<path d="M36.637 65.8159C34.894 65.8159 33.4124 65.8159 30.7979 65.8159C27.0503 65.9902 24 69.1276 24 72.9623V78.6272H43.4349V72.9623C43.5221 69.1276 40.4717 65.9902 36.637 65.8159Z" fill="white"/>
<path d="M56.6056 117.814C56.443 117.652 56.199 117.489 55.9551 117.326L57.2561 116.026C57.4187 115.863 57.5 115.619 57.5 115.456C57.5 115.212 57.4187 115.05 57.2561 114.887L51.6456 109.277C51.6456 109.277 51.6456 109.277 51.5643 109.195L49.6129 107.244C49.2876 106.919 48.7185 106.919 48.3932 107.244L40.9939 114.643C40.9126 114.643 40.8313 114.725 40.8313 114.806C40.5874 115.05 40.5061 115.456 40.6687 115.782C40.6687 115.863 40.75 115.944 40.8313 116.026L40.9126 116.107L43.5959 118.79C43.8398 119.034 44.1651 119.115 44.4903 118.953C44.8155 118.871 44.9782 118.546 45.0595 118.221C45.1408 117.814 45.3034 117.408 45.5473 117.164C46.2791 116.432 47.4175 116.432 48.068 117.164C48.3932 117.489 48.5558 117.977 48.5558 118.465C48.5558 118.953 48.3932 119.359 48.068 119.766C47.7427 120.091 47.4175 120.254 47.0109 120.254C46.9296 120.254 46.9296 120.254 46.8483 120.254C46.6044 120.335 46.3604 120.579 46.2791 120.823C46.1978 121.148 46.2791 121.392 46.5231 121.636L48.3932 123.587C48.5558 123.75 48.7998 123.831 48.9624 123.831C49.2063 123.831 49.3689 123.75 49.5316 123.587L50.9952 122.124C51.1578 122.368 51.3204 122.612 51.483 122.774C52.1335 123.425 53.0279 123.831 53.9223 123.831C54.8168 123.831 55.7112 123.506 56.3617 122.774C57.0121 122.124 57.4187 121.229 57.4187 120.335C57.5813 119.359 57.2561 118.465 56.6056 117.814Z" fill="white"/>
<path d="M47.6614 128.222C47.5801 128.222 47.4175 128.141 47.2549 128.222H44.0024C43.6772 128.222 43.3519 128.385 43.2706 128.71C43.108 129.035 43.1893 129.36 43.4333 129.604C43.6772 129.93 43.8398 130.336 43.8398 130.743C43.8398 131.718 42.9454 132.532 41.8884 132.532C40.8313 132.532 39.9369 131.718 39.9369 130.743C39.9369 130.336 40.0995 129.93 40.3434 129.604C40.3434 129.523 40.4248 129.523 40.4248 129.442C40.5874 129.198 40.5874 128.873 40.4248 128.629C40.2621 128.385 40.0182 128.222 39.693 128.222H36.9284V127.084C37.2536 127.165 37.4976 127.165 37.8228 127.165C39.8556 127.165 41.4818 125.62 41.4818 123.669C41.4818 121.717 39.8556 120.172 37.8228 120.172C37.4976 120.172 37.1723 120.172 36.9284 120.254V118.383C36.9284 118.14 36.8471 117.977 36.6845 117.814C36.5218 117.652 36.2779 117.57 36.1153 117.57H35.8714H32.0498H27.7403H27.659H24.8131C24.3252 117.57 24 117.977 24 118.383V128.791C24 128.873 24 128.954 24 128.954V129.198V132.857V136.922V137.004V139.687C24 139.931 24.0813 140.093 24.2439 140.256C24.4066 140.419 24.6505 140.5 24.8131 140.5H35.9527C36.034 140.5 36.1153 140.5 36.1966 140.5C36.2779 140.5 36.3592 140.5 36.5218 140.419H40.3434H44.6529H44.7342H47.5801C48.068 140.419 48.3932 140.012 48.3932 139.606V129.117C48.3932 129.035 48.3932 128.954 48.3932 128.873C48.2306 128.71 47.9867 128.385 47.6614 128.222ZM25.5449 119.278H27.4964H27.5777H31.9684H32.1311H35.2209V121.636C35.2209 121.961 35.3835 122.286 35.7087 122.368C36.034 122.53 36.3592 122.449 36.6032 122.286C36.9284 122.042 37.4163 121.88 37.8228 121.88C38.8799 121.88 39.7743 122.693 39.7743 123.669C39.7743 124.644 38.8799 125.458 37.8228 125.458C37.335 125.458 36.9284 125.295 36.6032 125.051C36.5218 125.051 36.5218 124.97 36.4405 124.97C36.1966 124.888 35.8714 124.888 35.6274 125.051C35.3835 125.214 35.2209 125.458 35.2209 125.783V128.303H34.1638C34.2451 128.059 34.2451 127.734 34.2451 127.49C34.2451 125.539 32.6189 123.994 30.5862 123.994C28.5534 123.994 26.9272 125.539 26.9272 127.49C26.9272 127.734 26.9272 128.059 27.0085 128.303H25.4636V119.278H25.5449ZM35.1396 138.955H25.4636V137.166V137.085V132.938V132.775V129.93H28.3908C28.716 129.93 29.0413 129.767 29.1226 129.442C29.1226 129.36 29.2039 129.279 29.2039 129.198C29.2039 128.954 29.2039 128.71 29.0413 128.547C28.7973 128.222 28.6347 127.816 28.6347 127.409C28.6347 126.433 29.5291 125.62 30.5862 125.62C31.6432 125.62 32.5376 126.433 32.5376 127.409C32.5376 127.816 32.375 128.222 32.1311 128.547C32.1311 128.629 32.0498 128.629 32.0498 128.71C32.0498 128.71 32.0498 128.71 32.0498 128.791C32.0498 128.873 32.0498 128.873 31.9684 128.954V129.035V129.117C31.9684 129.198 31.9684 129.198 31.9684 129.279C31.9684 129.279 31.9684 129.279 31.9684 129.36C31.9684 129.442 32.0498 129.523 32.0498 129.604C32.2124 129.848 32.4563 130.011 32.7816 130.011H35.1396V131.149C34.8956 131.068 34.5704 131.068 34.2451 131.068C33.1068 131.068 32.1311 131.556 31.3993 132.369C30.8301 132.938 30.5049 133.751 30.5049 134.646C30.5049 136.597 32.1311 138.142 34.1638 138.142C34.4891 138.142 34.8143 138.142 35.0583 138.061V138.955H35.1396ZM46.5231 138.955H44.5716H44.4903H40.0995H40.0182H36.9284V136.597C36.9284 136.272 36.7658 135.947 36.4405 135.865C36.1153 135.703 35.79 135.784 35.5461 135.947C35.2209 136.191 34.733 136.353 34.3265 136.353C33.2694 136.353 32.375 135.54 32.375 134.564C32.375 134.076 32.6189 133.67 32.9442 133.345C33.2694 133.019 33.7573 132.857 34.3265 132.857C34.8143 132.857 35.2209 133.019 35.5461 133.263L35.6274 133.345C35.8714 133.507 36.1966 133.507 36.4405 133.345C36.5218 133.263 36.6032 133.263 36.6845 133.182C36.8471 133.019 36.9284 132.775 36.9284 132.613V130.092H38.3107C38.2294 130.336 38.2294 130.661 38.2294 130.905C38.2294 132.857 39.8556 134.402 41.8884 134.402C43.9211 134.402 45.5473 132.857 45.5473 130.905C45.5473 130.661 45.5473 130.336 45.466 130.092H46.5231V138.955Z" fill="white"/>
<path d="M33.4679 13.2145C32.037 13.2145 30.7568 13.2145 28.6481 13.2145C25.5605 13.3533 23 15.7823 23 18.6972V23H39.116V18.6972C39.116 15.7823 36.6309 13.3533 33.4679 13.2145Z" fill="white"/>
<path d="M39.7938 1H35.5765C35.0494 1 34.5222 1.20819 34.1457 1.5552L33.1667 2.4574C32.6395 2.24919 32.037 2.11039 31.3593 2.11039H31.2086C29.1 2.11039 27.2926 3.56781 27.2926 5.37223V8.84226C27.2926 9.67507 27.6691 10.4385 28.2716 10.9937C28.9494 11.6877 30.0037 12.1041 31.2086 12.1041H31.3593C32.5642 12.1041 33.6185 11.6877 34.2963 10.9937C34.8988 10.4385 35.2753 9.67507 35.2753 8.84226V8.70345L37.8358 6.34385H39.8691C40.6222 6.34385 41.3 5.78863 41.3 5.02523V2.38801C41.2247 1.62461 40.5469 1 39.7938 1ZM40.321 4.67822C40.321 5.16403 39.8691 5.58042 39.342 5.58042H37.3086L35.5012 7.24605V5.58042C34.9741 5.58042 34.5222 5.16403 34.5222 4.67822V2.73502C34.5222 2.24921 34.9741 1.83282 35.5012 1.83282H39.342C39.8691 1.83282 40.321 2.24921 40.321 2.73502V4.67822Z" fill="white"/>
<path d="M27.2383 28.4209C27.1768 28.9473 26.9819 29.354 26.6538 29.6411C26.328 29.9259 25.8939 30.0684 25.3516 30.0684C24.7637 30.0684 24.292 29.8576 23.9365 29.436C23.5833 29.0145 23.4067 28.4505 23.4067 27.7441V27.2656C23.4067 26.8031 23.4888 26.3963 23.6528 26.0454C23.8192 25.6945 24.0539 25.4256 24.3569 25.2388C24.66 25.0496 25.0109 24.9551 25.4097 24.9551C25.9383 24.9551 26.3621 25.1032 26.6812 25.3994C27.0002 25.6934 27.1859 26.1012 27.2383 26.623H26.5786C26.5216 26.2266 26.3975 25.9395 26.2061 25.7617C26.0169 25.584 25.7515 25.4951 25.4097 25.4951C24.9904 25.4951 24.6611 25.6501 24.4219 25.96C24.1849 26.2699 24.0664 26.7108 24.0664 27.2827V27.7646C24.0664 28.3047 24.1792 28.7342 24.4048 29.0532C24.6304 29.3722 24.946 29.5317 25.3516 29.5317C25.7161 29.5317 25.9953 29.4497 26.189 29.2856C26.3849 29.1193 26.5148 28.8311 26.5786 28.4209H27.2383ZM30.3213 29.6343C30.0752 29.9237 29.714 30.0684 29.2378 30.0684C28.8436 30.0684 28.5428 29.9544 28.3354 29.7266C28.1304 29.4964 28.0267 29.1569 28.0244 28.708V26.3018H28.6567V28.6909C28.6567 29.2515 28.8846 29.5317 29.3403 29.5317C29.8234 29.5317 30.1447 29.3517 30.3042 28.9917V26.3018H30.9365V30H30.335L30.3213 29.6343ZM34.0537 29.019C34.0537 28.8481 33.9888 28.716 33.8589 28.6226C33.7313 28.5269 33.5068 28.4448 33.1855 28.3765C32.8665 28.3081 32.6125 28.2261 32.4233 28.1304C32.2365 28.0347 32.0975 27.9207 32.0063 27.7886C31.9175 27.6564 31.873 27.4992 31.873 27.3169C31.873 27.0138 32.0007 26.7575 32.2559 26.5479C32.5133 26.3382 32.8415 26.2334 33.2402 26.2334C33.6595 26.2334 33.999 26.3416 34.2588 26.5581C34.5208 26.7746 34.6519 27.0514 34.6519 27.3887H34.0161C34.0161 27.2155 33.9421 27.0662 33.7939 26.9409C33.6481 26.8156 33.4635 26.7529 33.2402 26.7529C33.0101 26.7529 32.8301 26.8031 32.7002 26.9033C32.5703 27.0036 32.5054 27.1346 32.5054 27.2964C32.5054 27.4491 32.5658 27.5641 32.6865 27.6416C32.8073 27.7191 33.0249 27.7931 33.3394 27.8638C33.6561 27.9344 33.9124 28.0187 34.1084 28.1167C34.3044 28.2147 34.4491 28.3332 34.5425 28.4722C34.6382 28.6089 34.686 28.7764 34.686 28.9746C34.686 29.305 34.5539 29.5705 34.2896 29.771C34.0252 29.9692 33.6823 30.0684 33.2607 30.0684C32.9645 30.0684 32.7025 30.016 32.4746 29.9111C32.2467 29.8063 32.0679 29.6605 31.938 29.4736C31.8104 29.2845 31.7466 29.0806 31.7466 28.8618H32.3789C32.3903 29.0737 32.4746 29.2424 32.6318 29.3677C32.7913 29.4907 33.001 29.5522 33.2607 29.5522C33.5 29.5522 33.6914 29.5044 33.835 29.4087C33.9808 29.3107 34.0537 29.1808 34.0537 29.019ZM36.3677 25.4062V26.3018H37.0581V26.7905H36.3677V29.084C36.3677 29.2321 36.3984 29.3438 36.46 29.4189C36.5215 29.4919 36.6263 29.5283 36.7744 29.5283C36.8473 29.5283 36.9476 29.5146 37.0752 29.4873V30C36.9089 30.0456 36.7471 30.0684 36.5898 30.0684C36.3073 30.0684 36.0942 29.9829 35.9507 29.812C35.8071 29.6411 35.7354 29.3984 35.7354 29.084V26.7905H35.062V26.3018H35.7354V25.4062H36.3677ZM37.564 28.1167C37.564 27.7544 37.6346 27.4285 37.7759 27.1392C37.9194 26.8498 38.1177 26.6265 38.3706 26.4692C38.6258 26.312 38.9163 26.2334 39.2422 26.2334C39.7458 26.2334 40.1525 26.4077 40.4624 26.7563C40.7746 27.105 40.9307 27.5687 40.9307 28.1475V28.1919C40.9307 28.5519 40.8612 28.8755 40.7222 29.1626C40.5854 29.4474 40.3883 29.6696 40.1309 29.8291C39.8757 29.9886 39.5817 30.0684 39.249 30.0684C38.7477 30.0684 38.341 29.894 38.0288 29.5454C37.7189 29.1968 37.564 28.7354 37.564 28.1611V28.1167ZM38.1997 28.1919C38.1997 28.6021 38.2943 28.9313 38.4834 29.1797C38.6748 29.4281 38.93 29.5522 39.249 29.5522C39.5703 29.5522 39.8255 29.4269 40.0146 29.1763C40.2038 28.9233 40.2983 28.5701 40.2983 28.1167C40.2983 27.7111 40.2015 27.383 40.0078 27.1323C39.8164 26.8794 39.5612 26.7529 39.2422 26.7529C38.93 26.7529 38.6782 26.8771 38.4868 27.1255C38.2954 27.3739 38.1997 27.7293 38.1997 28.1919ZM42.3184 26.3018L42.3354 26.7119C42.6066 26.3929 42.9723 26.2334 43.4326 26.2334C43.9499 26.2334 44.3019 26.4316 44.4888 26.8281C44.6118 26.6504 44.7713 26.5068 44.9673 26.3975C45.1655 26.2881 45.3991 26.2334 45.668 26.2334C46.4792 26.2334 46.8916 26.6629 46.9053 27.522V30H46.2729V27.5596C46.2729 27.2952 46.2126 27.0981 46.0918 26.9683C45.971 26.8361 45.7682 26.77 45.4834 26.77C45.2487 26.77 45.0539 26.8407 44.8989 26.9819C44.744 27.1209 44.654 27.3089 44.6289 27.5459V30H43.9932V27.5767C43.9932 27.0389 43.73 26.77 43.2036 26.77C42.7889 26.77 42.5052 26.9466 42.3525 27.2998V30H41.7202V26.3018H42.3184ZM49.397 30.0684C48.8957 30.0684 48.4878 29.9043 48.1733 29.5762C47.8589 29.2458 47.7017 28.8049 47.7017 28.2534V28.1372C47.7017 27.7703 47.7712 27.4434 47.9102 27.1562C48.0514 26.8669 48.2474 26.6413 48.498 26.4795C48.751 26.3154 49.0244 26.2334 49.3184 26.2334C49.7992 26.2334 50.1729 26.3918 50.4395 26.7085C50.7061 27.0252 50.8394 27.4787 50.8394 28.0688V28.332H48.334C48.3431 28.6966 48.4491 28.9917 48.6519 29.2173C48.8569 29.4406 49.1167 29.5522 49.4312 29.5522C49.6545 29.5522 49.8436 29.5067 49.9985 29.4155C50.1535 29.3244 50.2891 29.2036 50.4053 29.0532L50.7915 29.354C50.4816 29.8302 50.0168 30.0684 49.397 30.0684ZM49.3184 26.7529C49.0632 26.7529 48.849 26.8464 48.6758 27.0332C48.5026 27.2178 48.3955 27.4775 48.3545 27.8125H50.207V27.7646C50.1888 27.4434 50.1022 27.195 49.9473 27.0195C49.7923 26.8418 49.5827 26.7529 49.3184 26.7529ZM53.3618 26.8691C53.2661 26.8532 53.1624 26.8452 53.0508 26.8452C52.6361 26.8452 52.3547 27.0218 52.2065 27.375V30H51.5742V26.3018H52.1895L52.1997 26.729C52.4071 26.3986 52.701 26.2334 53.0815 26.2334C53.2046 26.2334 53.298 26.2493 53.3618 26.2812V26.8691ZM26.3906 35.6997H24.2339V37.4634H26.7393V38H23.5776V33.0234H26.7051V33.5635H24.2339V35.1631H26.3906V35.6997ZM28.6978 35.6519L29.5181 34.3018H30.2563L29.0464 36.1304L30.2939 38H29.5625L28.708 36.6157L27.8535 38H27.1187L28.3662 36.1304L27.1562 34.3018H27.8877L28.6978 35.6519ZM34.0537 36.1919C34.0537 36.7547 33.925 37.2082 33.6675 37.5522C33.41 37.8963 33.0614 38.0684 32.6216 38.0684C32.1727 38.0684 31.8195 37.9259 31.562 37.6411V39.4219H30.9297V34.3018H31.5073L31.5381 34.7119C31.7956 34.3929 32.1533 34.2334 32.6113 34.2334C33.0557 34.2334 33.4066 34.4009 33.6641 34.7358C33.9238 35.0708 34.0537 35.5368 34.0537 36.1338V36.1919ZM33.4214 36.1201C33.4214 35.7031 33.3325 35.3739 33.1548 35.1323C32.9771 34.8908 32.7332 34.77 32.4233 34.77C32.0405 34.77 31.7534 34.9398 31.562 35.2793V37.0464C31.7511 37.3836 32.0405 37.5522 32.4302 37.5522C32.7332 37.5522 32.9736 37.4326 33.1514 37.1934C33.3314 36.9518 33.4214 36.5941 33.4214 36.1201ZM36.395 38.0684C35.8937 38.0684 35.4858 37.9043 35.1714 37.5762C34.8569 37.2458 34.6997 36.8049 34.6997 36.2534V36.1372C34.6997 35.7703 34.7692 35.4434 34.9082 35.1562C35.0495 34.8669 35.2454 34.6413 35.4961 34.4795C35.749 34.3154 36.0225 34.2334 36.3164 34.2334C36.7972 34.2334 37.1709 34.3918 37.4375 34.7085C37.7041 35.0252 37.8374 35.4787 37.8374 36.0688V36.332H35.332C35.3411 36.6966 35.4471 36.9917 35.6499 37.2173C35.855 37.4406 36.1147 37.5522 36.4292 37.5522C36.6525 37.5522 36.8416 37.5067 36.9966 37.4155C37.1515 37.3244 37.2871 37.2036 37.4033 37.0532L37.7896 37.354C37.4797 37.8302 37.0148 38.0684 36.395 38.0684ZM36.3164 34.7529C36.0612 34.7529 35.847 34.8464 35.6738 35.0332C35.5007 35.2178 35.3936 35.4775 35.3525 35.8125H37.2051V35.7646C37.1868 35.4434 37.1003 35.195 36.9453 35.0195C36.7904 34.8418 36.5807 34.7529 36.3164 34.7529ZM40.3599 34.8691C40.2642 34.8532 40.1605 34.8452 40.0488 34.8452C39.6341 34.8452 39.3527 35.0218 39.2046 35.375V38H38.5723V34.3018H39.1875L39.1978 34.729C39.4051 34.3986 39.6991 34.2334 40.0796 34.2334C40.2026 34.2334 40.2961 34.2493 40.3599 34.2812V34.8691ZM41.6313 38H40.999V34.3018H41.6313V38ZM40.9478 33.3208C40.9478 33.2183 40.9785 33.1317 41.04 33.061C41.1038 32.9904 41.1973 32.9551 41.3203 32.9551C41.4434 32.9551 41.5368 32.9904 41.6006 33.061C41.6644 33.1317 41.6963 33.2183 41.6963 33.3208C41.6963 33.4233 41.6644 33.5088 41.6006 33.5771C41.5368 33.6455 41.4434 33.6797 41.3203 33.6797C41.1973 33.6797 41.1038 33.6455 41.04 33.5771C40.9785 33.5088 40.9478 33.4233 40.9478 33.3208ZM44.1812 38.0684C43.6799 38.0684 43.272 37.9043 42.9575 37.5762C42.6431 37.2458 42.4858 36.8049 42.4858 36.2534V36.1372C42.4858 35.7703 42.5553 35.4434 42.6943 35.1562C42.8356 34.8669 43.0316 34.6413 43.2822 34.4795C43.5352 34.3154 43.8086 34.2334 44.1025 34.2334C44.5833 34.2334 44.957 34.3918 45.2236 34.7085C45.4902 35.0252 45.6235 35.4787 45.6235 36.0688V36.332H43.1182C43.1273 36.6966 43.2332 36.9917 43.436 37.2173C43.6411 37.4406 43.9009 37.5522 44.2153 37.5522C44.4386 37.5522 44.6278 37.5067 44.7827 37.4155C44.9377 37.3244 45.0732 37.2036 45.1895 37.0532L45.5757 37.354C45.2658 37.8302 44.8009 38.0684 44.1812 38.0684ZM44.1025 34.7529C43.8473 34.7529 43.6331 34.8464 43.46 35.0332C43.2868 35.2178 43.1797 35.4775 43.1387 35.8125H44.9912V35.7646C44.973 35.4434 44.8864 35.195 44.7314 35.0195C44.5765 34.8418 44.3669 34.7529 44.1025 34.7529ZM46.9565 34.3018L46.9771 34.7666C47.2596 34.4111 47.6287 34.2334 48.0845 34.2334C48.866 34.2334 49.2603 34.6743 49.2671 35.5562V38H48.6348V35.5527C48.6325 35.2861 48.571 35.089 48.4502 34.9614C48.3317 34.8338 48.146 34.77 47.8931 34.77C47.688 34.77 47.508 34.8247 47.353 34.9341C47.1981 35.0435 47.0773 35.187 46.9907 35.3647V38H46.3584V34.3018H46.9565ZM51.7041 37.5522C51.9297 37.5522 52.1268 37.4839 52.2954 37.3472C52.464 37.2104 52.5575 37.0396 52.5757 36.8345H53.1738C53.1624 37.0464 53.0895 37.248 52.9551 37.4395C52.8206 37.6309 52.6406 37.7835 52.415 37.8975C52.1917 38.0114 51.9548 38.0684 51.7041 38.0684C51.2005 38.0684 50.7995 37.9009 50.501 37.5659C50.2048 37.2287 50.0566 36.7684 50.0566 36.1851V36.0791C50.0566 35.7191 50.1227 35.3989 50.2549 35.1187C50.387 34.8384 50.5762 34.6208 50.8223 34.4658C51.0706 34.3109 51.3634 34.2334 51.7007 34.2334C52.1154 34.2334 52.4595 34.3576 52.7329 34.606C53.0086 34.8543 53.1556 35.1768 53.1738 35.5732H52.5757C52.5575 35.334 52.4663 35.138 52.3022 34.9854C52.1405 34.8304 51.9399 34.7529 51.7007 34.7529C51.3794 34.7529 51.1299 34.8691 50.9521 35.1016C50.7767 35.3317 50.689 35.6655 50.689 36.103V36.2227C50.689 36.6488 50.7767 36.9769 50.9521 37.207C51.1276 37.4372 51.3783 37.5522 51.7041 37.5522ZM55.4194 38.0684C54.9181 38.0684 54.5103 37.9043 54.1958 37.5762C53.8813 37.2458 53.7241 36.8049 53.7241 36.2534V36.1372C53.7241 35.7703 53.7936 35.4434 53.9326 35.1562C54.0739 34.8669 54.2699 34.6413 54.5205 34.4795C54.7734 34.3154 55.0469 34.2334 55.3408 34.2334C55.8216 34.2334 56.1953 34.3918 56.4619 34.7085C56.7285 35.0252 56.8618 35.4787 56.8618 36.0688V36.332H54.3564C54.3656 36.6966 54.4715 36.9917 54.6743 37.2173C54.8794 37.4406 55.1392 37.5522 55.4536 37.5522C55.6769 37.5522 55.866 37.5067 56.021 37.4155C56.1759 37.3244 56.3115 37.2036 56.4277 37.0532L56.814 37.354C56.5041 37.8302 56.0392 38.0684 55.4194 38.0684ZM55.3408 34.7529C55.0856 34.7529 54.8714 34.8464 54.6982 35.0332C54.5251 35.2178 54.418 35.4775 54.377 35.8125H56.2295V35.7646C56.2113 35.4434 56.1247 35.195 55.9697 35.0195C55.8148 34.8418 55.6051 34.7529 55.3408 34.7529ZM25.0439 43.7817C24.4811 43.62 24.071 43.4217 23.8135 43.187C23.5583 42.95 23.4307 42.6584 23.4307 42.312C23.4307 41.9201 23.5868 41.5965 23.8989 41.3413C24.2134 41.0838 24.6213 40.9551 25.1226 40.9551C25.4644 40.9551 25.7686 41.0212 26.0352 41.1533C26.304 41.2855 26.5114 41.4678 26.6572 41.7002C26.8053 41.9326 26.8794 42.1867 26.8794 42.4624H26.2197C26.2197 42.1616 26.124 41.9258 25.9326 41.7549C25.7412 41.5817 25.4712 41.4951 25.1226 41.4951C24.799 41.4951 24.5461 41.5669 24.3638 41.7104C24.1838 41.8517 24.0938 42.0488 24.0938 42.3018C24.0938 42.5046 24.1792 42.6766 24.3501 42.8179C24.5233 42.9569 24.8161 43.0845 25.2285 43.2007C25.6432 43.3169 25.9668 43.4456 26.1992 43.5869C26.4339 43.7259 26.6071 43.8888 26.7188 44.0757C26.8327 44.2625 26.8896 44.4824 26.8896 44.7354C26.8896 45.1387 26.7324 45.4622 26.418 45.7061C26.1035 45.9476 25.6831 46.0684 25.1567 46.0684C24.8149 46.0684 24.4959 46.0034 24.1997 45.8735C23.9035 45.7414 23.6745 45.5614 23.5127 45.3335C23.3532 45.1056 23.2734 44.847 23.2734 44.5576H23.9331C23.9331 44.8584 24.0436 45.0965 24.2646 45.272C24.488 45.4451 24.7853 45.5317 25.1567 45.5317C25.5031 45.5317 25.7686 45.4611 25.9531 45.3198C26.1377 45.1785 26.23 44.986 26.23 44.7422C26.23 44.4984 26.1445 44.3104 25.9736 44.1782C25.8027 44.0438 25.4928 43.9116 25.0439 43.7817ZM29.1694 46.0684C28.6681 46.0684 28.2603 45.9043 27.9458 45.5762C27.6313 45.2458 27.4741 44.8049 27.4741 44.2534V44.1372C27.4741 43.7703 27.5436 43.4434 27.6826 43.1562C27.8239 42.8669 28.0199 42.6413 28.2705 42.4795C28.5234 42.3154 28.7969 42.2334 29.0908 42.2334C29.5716 42.2334 29.9453 42.3918 30.2119 42.7085C30.4785 43.0252 30.6118 43.4787 30.6118 44.0688V44.332H28.1064C28.1156 44.6966 28.2215 44.9917 28.4243 45.2173C28.6294 45.4406 28.8892 45.5522 29.2036 45.5522C29.4269 45.5522 29.616 45.5067 29.771 45.4155C29.9259 45.3244 30.0615 45.2036 30.1777 45.0532L30.564 45.354C30.2541 45.8302 29.7892 46.0684 29.1694 46.0684ZM29.0908 42.7529C28.8356 42.7529 28.6214 42.8464 28.4482 43.0332C28.2751 43.2178 28.168 43.4775 28.127 43.8125H29.9795V43.7646C29.9613 43.4434 29.8747 43.195 29.7197 43.0195C29.5648 42.8418 29.3551 42.7529 29.0908 42.7529ZM33.1343 42.8691C33.0386 42.8532 32.9349 42.8452 32.8232 42.8452C32.4085 42.8452 32.1271 43.0218 31.979 43.375V46H31.3467V42.3018H31.9619L31.9722 42.729C32.1795 42.3986 32.4735 42.2334 32.854 42.2334C32.9771 42.2334 33.0705 42.2493 33.1343 42.2812V42.8691ZM35.0005 45.1421L35.9165 42.3018H36.5625L35.2363 46H34.7544L33.4146 42.3018H34.0605L35.0005 45.1421ZM37.8579 46H37.2256V42.3018H37.8579V46ZM37.1743 41.3208C37.1743 41.2183 37.2051 41.1317 37.2666 41.061C37.3304 40.9904 37.4238 40.9551 37.5469 40.9551C37.6699 40.9551 37.7633 40.9904 37.8271 41.061C37.891 41.1317 37.9229 41.2183 37.9229 41.3208C37.9229 41.4233 37.891 41.5088 37.8271 41.5771C37.7633 41.6455 37.6699 41.6797 37.5469 41.6797C37.4238 41.6797 37.3304 41.6455 37.2666 41.5771C37.2051 41.5088 37.1743 41.4233 37.1743 41.3208ZM40.3564 45.5522C40.582 45.5522 40.7791 45.4839 40.9478 45.3472C41.1164 45.2104 41.2098 45.0396 41.228 44.8345H41.8262C41.8148 45.0464 41.7419 45.248 41.6074 45.4395C41.473 45.6309 41.293 45.7835 41.0674 45.8975C40.8441 46.0114 40.6071 46.0684 40.3564 46.0684C39.8529 46.0684 39.4518 45.9009 39.1533 45.5659C38.8571 45.2287 38.709 44.7684 38.709 44.1851V44.0791C38.709 43.7191 38.7751 43.3989 38.9072 43.1187C39.0394 42.8384 39.2285 42.6208 39.4746 42.4658C39.723 42.3109 40.0158 42.2334 40.353 42.2334C40.7677 42.2334 41.1118 42.3576 41.3853 42.606C41.661 42.8543 41.8079 43.1768 41.8262 43.5732H41.228C41.2098 43.334 41.1187 43.138 40.9546 42.9854C40.7928 42.8304 40.5923 42.7529 40.353 42.7529C40.0317 42.7529 39.7822 42.8691 39.6045 43.1016C39.429 43.3317 39.3413 43.6655 39.3413 44.103V44.2227C39.3413 44.6488 39.429 44.9769 39.6045 45.207C39.7799 45.4372 40.0306 45.5522 40.3564 45.5522ZM44.0718 46.0684C43.5705 46.0684 43.1626 45.9043 42.8481 45.5762C42.5337 45.2458 42.3765 44.8049 42.3765 44.2534V44.1372C42.3765 43.7703 42.446 43.4434 42.585 43.1562C42.7262 42.8669 42.9222 42.6413 43.1729 42.4795C43.4258 42.3154 43.6992 42.2334 43.9932 42.2334C44.474 42.2334 44.8477 42.3918 45.1143 42.7085C45.3809 43.0252 45.5142 43.4787 45.5142 44.0688V44.332H43.0088C43.0179 44.6966 43.1239 44.9917 43.3267 45.2173C43.5317 45.4406 43.7915 45.5522 44.106 45.5522C44.3293 45.5522 44.5184 45.5067 44.6733 45.4155C44.8283 45.3244 44.9639 45.2036 45.0801 45.0532L45.4663 45.354C45.1564 45.8302 44.6916 46.0684 44.0718 46.0684ZM43.9932 42.7529C43.738 42.7529 43.5238 42.8464 43.3506 43.0332C43.1774 43.2178 43.0703 43.4775 43.0293 43.8125H44.8818V43.7646C44.8636 43.4434 44.777 43.195 44.6221 43.0195C44.4671 42.8418 44.2575 42.7529 43.9932 42.7529ZM48.4023 45.019C48.4023 44.8481 48.3374 44.716 48.2075 44.6226C48.0799 44.5269 47.8555 44.4448 47.5342 44.3765C47.2152 44.3081 46.9611 44.2261 46.772 44.1304C46.5851 44.0347 46.4461 43.9207 46.355 43.7886C46.2661 43.6564 46.2217 43.4992 46.2217 43.3169C46.2217 43.0138 46.3493 42.7575 46.6045 42.5479C46.862 42.3382 47.1901 42.2334 47.5889 42.2334C48.0081 42.2334 48.3477 42.3416 48.6074 42.5581C48.8695 42.7746 49.0005 43.0514 49.0005 43.3887H48.3647C48.3647 43.2155 48.2907 43.0662 48.1426 42.9409C47.9967 42.8156 47.8122 42.7529 47.5889 42.7529C47.3587 42.7529 47.1787 42.8031 47.0488 42.9033C46.9189 43.0036 46.854 43.1346 46.854 43.2964C46.854 43.4491 46.9144 43.5641 47.0352 43.6416C47.1559 43.7191 47.3735 43.7931 47.688 43.8638C48.0047 43.9344 48.2611 44.0187 48.457 44.1167C48.653 44.2147 48.7977 44.3332 48.8911 44.4722C48.9868 44.6089 49.0347 44.7764 49.0347 44.9746C49.0347 45.305 48.9025 45.5705 48.6382 45.771C48.3739 45.9692 48.0309 46.0684 47.6094 46.0684C47.3132 46.0684 47.0511 46.016 46.8232 45.9111C46.5954 45.8063 46.4165 45.6605 46.2866 45.4736C46.159 45.2845 46.0952 45.0806 46.0952 44.8618H46.7275C46.7389 45.0737 46.8232 45.2424 46.9805 45.3677C47.14 45.4907 47.3496 45.5522 47.6094 45.5522C47.8486 45.5522 48.04 45.5044 48.1836 45.4087C48.3294 45.3107 48.4023 45.1808 48.4023 45.019Z" fill="white"/>
<path d="M24.5776 89V84.0234H26.2046C26.7446 84.0234 27.1502 84.1351 27.4214 84.3584C27.6948 84.5817 27.8315 84.9121 27.8315 85.3496C27.8315 85.582 27.7655 85.7882 27.6333 85.9683C27.5011 86.146 27.3211 86.2839 27.0933 86.3818C27.3621 86.457 27.5741 86.6006 27.729 86.8125C27.8862 87.0221 27.9648 87.2728 27.9648 87.5645C27.9648 88.0111 27.8201 88.362 27.5308 88.6172C27.2414 88.8724 26.8324 89 26.3037 89H24.5776ZM25.2339 86.6724V88.4634H26.3174C26.6227 88.4634 26.8631 88.3848 27.0386 88.2275C27.2163 88.068 27.3052 87.8493 27.3052 87.5713C27.3052 86.972 26.9793 86.6724 26.3276 86.6724H25.2339ZM25.2339 86.146H26.2251C26.5122 86.146 26.7412 86.0742 26.9121 85.9307C27.0853 85.7871 27.1719 85.5923 27.1719 85.3462C27.1719 85.0728 27.0921 84.8745 26.9326 84.7515C26.7731 84.6261 26.5304 84.5635 26.2046 84.5635H25.2339V86.146ZM31.123 89C31.0866 88.9271 31.057 88.7972 31.0342 88.6104C30.7402 88.9157 30.3893 89.0684 29.9814 89.0684C29.6169 89.0684 29.3172 88.9658 29.0825 88.7607C28.8501 88.5534 28.7339 88.2913 28.7339 87.9746C28.7339 87.5895 28.8797 87.291 29.1714 87.0791C29.4653 86.8649 29.8778 86.7578 30.4087 86.7578H31.0239V86.4673C31.0239 86.2463 30.9578 86.0708 30.8257 85.9409C30.6935 85.8088 30.4987 85.7427 30.2412 85.7427C30.0156 85.7427 29.8265 85.7996 29.6738 85.9136C29.5212 86.0275 29.4448 86.1654 29.4448 86.3271H28.8091C28.8091 86.1426 28.874 85.9648 29.0039 85.7939C29.1361 85.6208 29.3138 85.484 29.5371 85.3838C29.7627 85.2835 30.0099 85.2334 30.2788 85.2334C30.7049 85.2334 31.0387 85.3405 31.2803 85.5547C31.5218 85.7666 31.6471 86.0594 31.6562 86.4331V88.1353C31.6562 88.4748 31.6995 88.7448 31.7861 88.9453V89H31.123ZM30.0737 88.5181C30.272 88.5181 30.46 88.4668 30.6377 88.3643C30.8154 88.2617 30.9442 88.1284 31.0239 87.9644V87.2056H30.5283C29.7536 87.2056 29.3662 87.4323 29.3662 87.8857C29.3662 88.084 29.4323 88.2389 29.5645 88.3506C29.6966 88.4622 29.8664 88.5181 30.0737 88.5181ZM34.1309 88.5522C34.3564 88.5522 34.5535 88.4839 34.7222 88.3472C34.8908 88.2104 34.9842 88.0396 35.0024 87.8345H35.6006C35.5892 88.0464 35.5163 88.248 35.3818 88.4395C35.2474 88.6309 35.0674 88.7835 34.8418 88.8975C34.6185 89.0114 34.3815 89.0684 34.1309 89.0684C33.6273 89.0684 33.2262 88.9009 32.9277 88.5659C32.6315 88.2287 32.4834 87.7684 32.4834 87.1851V87.0791C32.4834 86.7191 32.5495 86.3989 32.6816 86.1187C32.8138 85.8384 33.0029 85.6208 33.249 85.4658C33.4974 85.3109 33.7902 85.2334 34.1274 85.2334C34.5422 85.2334 34.8862 85.3576 35.1597 85.606C35.4354 85.8543 35.5824 86.1768 35.6006 86.5732H35.0024C34.9842 86.334 34.8931 86.138 34.729 85.9854C34.5672 85.8304 34.3667 85.7529 34.1274 85.7529C33.8062 85.7529 33.5566 85.8691 33.3789 86.1016C33.2035 86.3317 33.1157 86.6655 33.1157 87.103V87.2227C33.1157 87.6488 33.2035 87.9769 33.3789 88.207C33.5544 88.4372 33.805 88.5522 34.1309 88.5522ZM37.3438 87.2876L36.9473 87.7012V89H36.3149V83.75H36.9473V86.9253L37.2856 86.5186L38.4375 85.3018H39.2065L37.7676 86.8467L39.374 89H38.6323L37.3438 87.2876ZM41.1753 87.144H39.5073V86.6279H41.1753V87.144ZM45.7212 86.6724C45.7212 87.16 45.6392 87.5861 45.4751 87.9507C45.311 88.313 45.0786 88.5898 44.7778 88.7812C44.4771 88.9727 44.1261 89.0684 43.7251 89.0684C43.3332 89.0684 42.9857 88.9727 42.6826 88.7812C42.3796 88.5876 42.1437 88.313 41.9751 87.9575C41.8088 87.5998 41.7233 87.1862 41.7188 86.7168V86.3579C41.7188 85.8794 41.8019 85.4567 41.9683 85.0898C42.1346 84.723 42.3693 84.4427 42.6724 84.249C42.9777 84.0531 43.3263 83.9551 43.7183 83.9551C44.117 83.9551 44.4679 84.0519 44.771 84.2456C45.0763 84.437 45.311 84.7161 45.4751 85.083C45.6392 85.4476 45.7212 85.8726 45.7212 86.3579V86.6724ZM45.0684 86.3511C45.0684 85.7609 44.9499 85.3086 44.7129 84.9941C44.4759 84.6774 44.1444 84.519 43.7183 84.519C43.3035 84.519 42.9766 84.6774 42.7373 84.9941C42.5003 85.3086 42.3784 85.7461 42.3716 86.3066V86.6724C42.3716 87.2443 42.4912 87.6943 42.7305 88.0225C42.972 88.3483 43.3035 88.5112 43.7251 88.5112C44.1489 88.5112 44.4771 88.3574 44.7095 88.0498C44.9419 87.7399 45.0615 87.2967 45.0684 86.7202V86.3511ZM46.9175 89V85.7905H46.333V85.3018H46.9175V84.9224C46.9175 84.5259 47.0234 84.2194 47.2354 84.0029C47.4473 83.7865 47.7469 83.6782 48.1343 83.6782C48.2801 83.6782 48.4248 83.6976 48.5684 83.7363L48.5342 84.249C48.4271 84.2285 48.3132 84.2183 48.1924 84.2183C47.9873 84.2183 47.8289 84.2786 47.7173 84.3994C47.6056 84.5179 47.5498 84.6888 47.5498 84.9121V85.3018H48.917V84.9873C48.917 84.5749 49.0343 84.2536 49.269 84.0234C49.506 83.7933 49.8398 83.6782 50.2705 83.6782C50.5257 83.6782 50.8481 83.7477 51.2378 83.8867L51.1318 84.4199C50.847 84.306 50.5747 84.249 50.3149 84.249C50.0438 84.249 49.8478 84.3094 49.7271 84.4302C49.6086 84.5509 49.5493 84.7344 49.5493 84.9805V85.3018H50.3081V85.7905H49.5493V89H48.917V85.7905H47.5498V89H46.9175ZM51.5488 89H50.9165V85.3018H51.5488V89ZM54.0645 88.5522C54.29 88.5522 54.4871 88.4839 54.6558 88.3472C54.8244 88.2104 54.9178 88.0396 54.936 87.8345H55.5342C55.5228 88.0464 55.4499 88.248 55.3154 88.4395C55.181 88.6309 55.001 88.7835 54.7754 88.8975C54.5521 89.0114 54.3151 89.0684 54.0645 89.0684C53.5609 89.0684 53.1598 88.9009 52.8613 88.5659C52.5651 88.2287 52.417 87.7684 52.417 87.1851V87.0791C52.417 86.7191 52.4831 86.3989 52.6152 86.1187C52.7474 85.8384 52.9365 85.6208 53.1826 85.4658C53.431 85.3109 53.7238 85.2334 54.061 85.2334C54.4757 85.2334 54.8198 85.3576 55.0933 85.606C55.369 85.8543 55.516 86.1768 55.5342 86.5732H54.936C54.9178 86.334 54.8267 86.138 54.6626 85.9854C54.5008 85.8304 54.3003 85.7529 54.061 85.7529C53.7397 85.7529 53.4902 85.8691 53.3125 86.1016C53.137 86.3317 53.0493 86.6655 53.0493 87.103V87.2227C53.0493 87.6488 53.137 87.9769 53.3125 88.207C53.488 88.4372 53.7386 88.5522 54.0645 88.5522ZM57.7798 89.0684C57.2785 89.0684 56.8706 88.9043 56.5562 88.5762C56.2417 88.2458 56.0845 87.8049 56.0845 87.2534V87.1372C56.0845 86.7703 56.154 86.4434 56.293 86.1562C56.4342 85.8669 56.6302 85.6413 56.8809 85.4795C57.1338 85.3154 57.4072 85.2334 57.7012 85.2334C58.182 85.2334 58.5557 85.3918 58.8223 85.7085C59.0889 86.0252 59.2222 86.4787 59.2222 87.0688V87.332H56.7168C56.7259 87.6966 56.8319 87.9917 57.0347 88.2173C57.2397 88.4406 57.4995 88.5522 57.814 88.5522C58.0373 88.5522 58.2264 88.5067 58.3813 88.4155C58.5363 88.3244 58.6719 88.2036 58.7881 88.0532L59.1743 88.354C58.8644 88.8302 58.3996 89.0684 57.7798 89.0684ZM57.7012 85.7529C57.446 85.7529 57.2318 85.8464 57.0586 86.0332C56.8854 86.2178 56.7783 86.4775 56.7373 86.8125H58.5898V86.7646C58.5716 86.4434 58.485 86.195 58.3301 86.0195C58.1751 85.8418 57.9655 85.7529 57.7012 85.7529ZM26.0439 94.7817C25.4811 94.62 25.071 94.4217 24.8135 94.187C24.5583 93.95 24.4307 93.6584 24.4307 93.312C24.4307 92.9201 24.5868 92.5965 24.8989 92.3413C25.2134 92.0838 25.6213 91.9551 26.1226 91.9551C26.4644 91.9551 26.7686 92.0212 27.0352 92.1533C27.304 92.2855 27.5114 92.4678 27.6572 92.7002C27.8053 92.9326 27.8794 93.1867 27.8794 93.4624H27.2197C27.2197 93.1616 27.124 92.9258 26.9326 92.7549C26.7412 92.5817 26.4712 92.4951 26.1226 92.4951C25.799 92.4951 25.5461 92.5669 25.3638 92.7104C25.1838 92.8517 25.0938 93.0488 25.0938 93.3018C25.0938 93.5046 25.1792 93.6766 25.3501 93.8179C25.5233 93.9569 25.8161 94.0845 26.2285 94.2007C26.6432 94.3169 26.9668 94.4456 27.1992 94.5869C27.4339 94.7259 27.6071 94.8888 27.7188 95.0757C27.8327 95.2625 27.8896 95.4824 27.8896 95.7354C27.8896 96.1387 27.7324 96.4622 27.418 96.7061C27.1035 96.9476 26.6831 97.0684 26.1567 97.0684C25.8149 97.0684 25.4959 97.0034 25.1997 96.8735C24.9035 96.7414 24.6745 96.5614 24.5127 96.3335C24.3532 96.1056 24.2734 95.847 24.2734 95.5576H24.9331C24.9331 95.8584 25.0436 96.0965 25.2646 96.272C25.488 96.4451 25.7853 96.5317 26.1567 96.5317C26.5031 96.5317 26.7686 96.4611 26.9531 96.3198C27.1377 96.1785 27.23 95.986 27.23 95.7422C27.23 95.4984 27.1445 95.3104 26.9736 95.1782C26.8027 95.0438 26.4928 94.9116 26.0439 94.7817ZM30.1694 97.0684C29.6681 97.0684 29.2603 96.9043 28.9458 96.5762C28.6313 96.2458 28.4741 95.8049 28.4741 95.2534V95.1372C28.4741 94.7703 28.5436 94.4434 28.6826 94.1562C28.8239 93.8669 29.0199 93.6413 29.2705 93.4795C29.5234 93.3154 29.7969 93.2334 30.0908 93.2334C30.5716 93.2334 30.9453 93.3918 31.2119 93.7085C31.4785 94.0252 31.6118 94.4787 31.6118 95.0688V95.332H29.1064C29.1156 95.6966 29.2215 95.9917 29.4243 96.2173C29.6294 96.4406 29.8892 96.5522 30.2036 96.5522C30.4269 96.5522 30.616 96.5067 30.771 96.4155C30.9259 96.3244 31.0615 96.2036 31.1777 96.0532L31.564 96.354C31.2541 96.8302 30.7892 97.0684 30.1694 97.0684ZM30.0908 93.7529C29.8356 93.7529 29.6214 93.8464 29.4482 94.0332C29.2751 94.2178 29.168 94.4775 29.127 94.8125H30.9795V94.7646C30.9613 94.4434 30.8747 94.195 30.7197 94.0195C30.5648 93.8418 30.3551 93.7529 30.0908 93.7529ZM34.1343 93.8691C34.0386 93.8532 33.9349 93.8452 33.8232 93.8452C33.4085 93.8452 33.1271 94.0218 32.979 94.375V97H32.3467V93.3018H32.9619L32.9722 93.729C33.1795 93.3986 33.4735 93.2334 33.854 93.2334C33.9771 93.2334 34.0705 93.2493 34.1343 93.2812V93.8691ZM36.0005 96.1421L36.9165 93.3018H37.5625L36.2363 97H35.7544L34.4146 93.3018H35.0605L36.0005 96.1421ZM38.8579 97H38.2256V93.3018H38.8579V97ZM38.1743 92.3208C38.1743 92.2183 38.2051 92.1317 38.2666 92.061C38.3304 91.9904 38.4238 91.9551 38.5469 91.9551C38.6699 91.9551 38.7633 91.9904 38.8271 92.061C38.891 92.1317 38.9229 92.2183 38.9229 92.3208C38.9229 92.4233 38.891 92.5088 38.8271 92.5771C38.7633 92.6455 38.6699 92.6797 38.5469 92.6797C38.4238 92.6797 38.3304 92.6455 38.2666 92.5771C38.2051 92.5088 38.1743 92.4233 38.1743 92.3208ZM41.3564 96.5522C41.582 96.5522 41.7791 96.4839 41.9478 96.3472C42.1164 96.2104 42.2098 96.0396 42.228 95.8345H42.8262C42.8148 96.0464 42.7419 96.248 42.6074 96.4395C42.473 96.6309 42.293 96.7835 42.0674 96.8975C41.8441 97.0114 41.6071 97.0684 41.3564 97.0684C40.8529 97.0684 40.4518 96.9009 40.1533 96.5659C39.8571 96.2287 39.709 95.7684 39.709 95.1851V95.0791C39.709 94.7191 39.7751 94.3989 39.9072 94.1187C40.0394 93.8384 40.2285 93.6208 40.4746 93.4658C40.723 93.3109 41.0158 93.2334 41.353 93.2334C41.7677 93.2334 42.1118 93.3576 42.3853 93.606C42.661 93.8543 42.8079 94.1768 42.8262 94.5732H42.228C42.2098 94.334 42.1187 94.138 41.9546 93.9854C41.7928 93.8304 41.5923 93.7529 41.353 93.7529C41.0317 93.7529 40.7822 93.8691 40.6045 94.1016C40.429 94.3317 40.3413 94.6655 40.3413 95.103V95.2227C40.3413 95.6488 40.429 95.9769 40.6045 96.207C40.7799 96.4372 41.0306 96.5522 41.3564 96.5522ZM45.0718 97.0684C44.5705 97.0684 44.1626 96.9043 43.8481 96.5762C43.5337 96.2458 43.3765 95.8049 43.3765 95.2534V95.1372C43.3765 94.7703 43.446 94.4434 43.585 94.1562C43.7262 93.8669 43.9222 93.6413 44.1729 93.4795C44.4258 93.3154 44.6992 93.2334 44.9932 93.2334C45.474 93.2334 45.8477 93.3918 46.1143 93.7085C46.3809 94.0252 46.5142 94.4787 46.5142 95.0688V95.332H44.0088C44.0179 95.6966 44.1239 95.9917 44.3267 96.2173C44.5317 96.4406 44.7915 96.5522 45.106 96.5522C45.3293 96.5522 45.5184 96.5067 45.6733 96.4155C45.8283 96.3244 45.9639 96.2036 46.0801 96.0532L46.4663 96.354C46.1564 96.8302 45.6916 97.0684 45.0718 97.0684ZM44.9932 93.7529C44.738 93.7529 44.5238 93.8464 44.3506 94.0332C44.1774 94.2178 44.0703 94.4775 44.0293 94.8125H45.8818V94.7646C45.8636 94.4434 45.777 94.195 45.6221 94.0195C45.4671 93.8418 45.2575 93.7529 44.9932 93.7529ZM49.4023 96.019C49.4023 95.8481 49.3374 95.716 49.2075 95.6226C49.0799 95.5269 48.8555 95.4448 48.5342 95.3765C48.2152 95.3081 47.9611 95.2261 47.772 95.1304C47.5851 95.0347 47.4461 94.9207 47.355 94.7886C47.2661 94.6564 47.2217 94.4992 47.2217 94.3169C47.2217 94.0138 47.3493 93.7575 47.6045 93.5479C47.862 93.3382 48.1901 93.2334 48.5889 93.2334C49.0081 93.2334 49.3477 93.3416 49.6074 93.5581C49.8695 93.7746 50.0005 94.0514 50.0005 94.3887H49.3647C49.3647 94.2155 49.2907 94.0662 49.1426 93.9409C48.9967 93.8156 48.8122 93.7529 48.5889 93.7529C48.3587 93.7529 48.1787 93.8031 48.0488 93.9033C47.9189 94.0036 47.854 94.1346 47.854 94.2964C47.854 94.4491 47.9144 94.5641 48.0352 94.6416C48.1559 94.7191 48.3735 94.7931 48.688 94.8638C49.0047 94.9344 49.2611 95.0187 49.457 95.1167C49.653 95.2147 49.7977 95.3332 49.8911 95.4722C49.9868 95.6089 50.0347 95.7764 50.0347 95.9746C50.0347 96.305 49.9025 96.5705 49.6382 96.771C49.3739 96.9692 49.0309 97.0684 48.6094 97.0684C48.3132 97.0684 48.0511 97.016 47.8232 96.9111C47.5954 96.8063 47.4165 96.6605 47.2866 96.4736C47.159 96.2845 47.0952 96.0806 47.0952 95.8618H47.7275C47.7389 96.0737 47.8232 96.2424 47.9805 96.3677C48.14 96.4907 48.3496 96.5522 48.6094 96.5522C48.8486 96.5522 49.04 96.5044 49.1836 96.4087C49.3294 96.3107 49.4023 96.1808 49.4023 96.019Z" fill="white"/>
<path d="M25.8423 146.686L25.2339 147.318V149H24.5776V144.023H25.2339V146.484L27.4453 144.023H28.2383L26.2798 146.221L28.3921 149H27.606L25.8423 146.686ZM29.3833 145.302L29.4038 145.767C29.6864 145.411 30.0555 145.233 30.5112 145.233C31.2928 145.233 31.687 145.674 31.6938 146.556V149H31.0615V146.553C31.0592 146.286 30.9977 146.089 30.877 145.961C30.7585 145.834 30.5728 145.77 30.3198 145.77C30.1147 145.77 29.9347 145.825 29.7798 145.934C29.6248 146.043 29.5041 146.187 29.4175 146.365V149H28.7852V145.302H29.3833ZM32.48 147.117C32.48 146.754 32.5506 146.429 32.6919 146.139C32.8354 145.85 33.0337 145.626 33.2866 145.469C33.5418 145.312 33.8324 145.233 34.1582 145.233C34.6618 145.233 35.0685 145.408 35.3784 145.756C35.6906 146.105 35.8467 146.569 35.8467 147.147V147.192C35.8467 147.552 35.7772 147.875 35.6382 148.163C35.5015 148.447 35.3044 148.67 35.0469 148.829C34.7917 148.989 34.4977 149.068 34.165 149.068C33.6637 149.068 33.257 148.894 32.9448 148.545C32.6349 148.197 32.48 147.735 32.48 147.161V147.117ZM33.1157 147.192C33.1157 147.602 33.2103 147.931 33.3994 148.18C33.5908 148.428 33.846 148.552 34.165 148.552C34.4863 148.552 34.7415 148.427 34.9307 148.176C35.1198 147.923 35.2144 147.57 35.2144 147.117C35.2144 146.711 35.1175 146.383 34.9238 146.132C34.7324 145.879 34.4772 145.753 34.1582 145.753C33.846 145.753 33.5942 145.877 33.4028 146.125C33.2114 146.374 33.1157 146.729 33.1157 147.192ZM39.9141 148.128L40.625 145.302H41.2573L40.1807 149H39.668L38.769 146.197L37.894 149H37.3813L36.3081 145.302H36.937L37.665 148.07L38.5264 145.302H39.0356L39.9141 148.128ZM42.5903 149H41.958V143.75H42.5903V149ZM45.1401 149.068C44.6388 149.068 44.231 148.904 43.9165 148.576C43.6021 148.246 43.4448 147.805 43.4448 147.253V147.137C43.4448 146.77 43.5143 146.443 43.6533 146.156C43.7946 145.867 43.9906 145.641 44.2412 145.479C44.4941 145.315 44.7676 145.233 45.0615 145.233C45.5423 145.233 45.916 145.392 46.1826 145.708C46.4492 146.025 46.5825 146.479 46.5825 147.069V147.332H44.0771C44.0863 147.697 44.1922 147.992 44.395 148.217C44.6001 148.441 44.8599 148.552 45.1743 148.552C45.3976 148.552 45.5868 148.507 45.7417 148.416C45.8966 148.324 46.0322 148.204 46.1484 148.053L46.5347 148.354C46.2248 148.83 45.7599 149.068 45.1401 149.068ZM45.0615 145.753C44.8063 145.753 44.5921 145.846 44.4189 146.033C44.2458 146.218 44.1387 146.478 44.0977 146.812H45.9502V146.765C45.932 146.443 45.8454 146.195 45.6904 146.02C45.5355 145.842 45.3258 145.753 45.0615 145.753ZM47.1636 147.12C47.1636 146.553 47.298 146.097 47.5669 145.753C47.8358 145.407 48.1878 145.233 48.623 145.233C49.056 145.233 49.3989 145.382 49.6519 145.678V143.75H50.2842V149H49.7031L49.6724 148.604C49.4194 148.913 49.0674 149.068 48.6162 149.068C48.1878 149.068 47.8381 148.893 47.5669 148.542C47.298 148.191 47.1636 147.733 47.1636 147.168V147.12ZM47.7959 147.192C47.7959 147.611 47.8825 147.939 48.0557 148.176C48.2288 148.413 48.4681 148.532 48.7734 148.532C49.1745 148.532 49.4673 148.352 49.6519 147.992V146.293C49.4627 145.944 49.1722 145.77 48.7803 145.77C48.4704 145.77 48.2288 145.89 48.0557 146.129C47.8825 146.368 47.7959 146.722 47.7959 147.192ZM51.1182 147.12C51.1182 146.544 51.2515 146.086 51.5181 145.746C51.7847 145.404 52.1379 145.233 52.5776 145.233C53.0288 145.233 53.3809 145.393 53.6338 145.712L53.6646 145.302H54.2422V148.911C54.2422 149.39 54.0998 149.767 53.8149 150.042C53.5324 150.318 53.1519 150.456 52.6733 150.456C52.4067 150.456 52.1458 150.399 51.8906 150.285C51.6354 150.171 51.4406 150.015 51.3062 149.817L51.6343 149.438C51.9054 149.772 52.237 149.94 52.6289 149.94C52.9365 149.94 53.1758 149.853 53.3467 149.68C53.5199 149.507 53.6064 149.263 53.6064 148.949V148.631C53.3535 148.923 53.0083 149.068 52.5708 149.068C52.1379 149.068 51.7869 148.894 51.5181 148.545C51.2515 148.197 51.1182 147.722 51.1182 147.12ZM51.7539 147.192C51.7539 147.609 51.8394 147.937 52.0103 148.176C52.1812 148.413 52.4204 148.532 52.728 148.532C53.1268 148.532 53.4196 148.351 53.6064 147.988V146.3C53.4128 145.947 53.1222 145.77 52.7349 145.77C52.4272 145.77 52.1868 145.89 52.0137 146.129C51.8405 146.368 51.7539 146.722 51.7539 147.192ZM56.7339 149.068C56.2326 149.068 55.8247 148.904 55.5103 148.576C55.1958 148.246 55.0386 147.805 55.0386 147.253V147.137C55.0386 146.77 55.1081 146.443 55.2471 146.156C55.3883 145.867 55.5843 145.641 55.835 145.479C56.0879 145.315 56.3613 145.233 56.6553 145.233C57.1361 145.233 57.5098 145.392 57.7764 145.708C58.043 146.025 58.1763 146.479 58.1763 147.069V147.332H55.6709C55.68 147.697 55.786 147.992 55.9888 148.217C56.1938 148.441 56.4536 148.552 56.7681 148.552C56.9914 148.552 57.1805 148.507 57.3354 148.416C57.4904 148.324 57.626 148.204 57.7422 148.053L58.1284 148.354C57.8185 148.83 57.3537 149.068 56.7339 149.068ZM56.6553 145.753C56.4001 145.753 56.1859 145.846 56.0127 146.033C55.8395 146.218 55.7324 146.478 55.6914 146.812H57.5439V146.765C57.5257 146.443 57.4391 146.195 57.2842 146.02C57.1292 145.842 56.9196 145.753 56.6553 145.753ZM26.0439 154.782C25.4811 154.62 25.071 154.422 24.8135 154.187C24.5583 153.95 24.4307 153.658 24.4307 153.312C24.4307 152.92 24.5868 152.597 24.8989 152.341C25.2134 152.084 25.6213 151.955 26.1226 151.955C26.4644 151.955 26.7686 152.021 27.0352 152.153C27.304 152.285 27.5114 152.468 27.6572 152.7C27.8053 152.933 27.8794 153.187 27.8794 153.462H27.2197C27.2197 153.162 27.124 152.926 26.9326 152.755C26.7412 152.582 26.4712 152.495 26.1226 152.495C25.799 152.495 25.5461 152.567 25.3638 152.71C25.1838 152.852 25.0938 153.049 25.0938 153.302C25.0938 153.505 25.1792 153.677 25.3501 153.818C25.5233 153.957 25.8161 154.084 26.2285 154.201C26.6432 154.317 26.9668 154.446 27.1992 154.587C27.4339 154.726 27.6071 154.889 27.7188 155.076C27.8327 155.263 27.8896 155.482 27.8896 155.735C27.8896 156.139 27.7324 156.462 27.418 156.706C27.1035 156.948 26.6831 157.068 26.1567 157.068C25.8149 157.068 25.4959 157.003 25.1997 156.874C24.9035 156.741 24.6745 156.561 24.5127 156.333C24.3532 156.106 24.2734 155.847 24.2734 155.558H24.9331C24.9331 155.858 25.0436 156.097 25.2646 156.272C25.488 156.445 25.7853 156.532 26.1567 156.532C26.5031 156.532 26.7686 156.461 26.9531 156.32C27.1377 156.179 27.23 155.986 27.23 155.742C27.23 155.498 27.1445 155.31 26.9736 155.178C26.8027 155.044 26.4928 154.912 26.0439 154.782ZM30.1694 157.068C29.6681 157.068 29.2603 156.904 28.9458 156.576C28.6313 156.246 28.4741 155.805 28.4741 155.253V155.137C28.4741 154.77 28.5436 154.443 28.6826 154.156C28.8239 153.867 29.0199 153.641 29.2705 153.479C29.5234 153.315 29.7969 153.233 30.0908 153.233C30.5716 153.233 30.9453 153.392 31.2119 153.708C31.4785 154.025 31.6118 154.479 31.6118 155.069V155.332H29.1064C29.1156 155.697 29.2215 155.992 29.4243 156.217C29.6294 156.441 29.8892 156.552 30.2036 156.552C30.4269 156.552 30.616 156.507 30.771 156.416C30.9259 156.324 31.0615 156.204 31.1777 156.053L31.564 156.354C31.2541 156.83 30.7892 157.068 30.1694 157.068ZM30.0908 153.753C29.8356 153.753 29.6214 153.846 29.4482 154.033C29.2751 154.218 29.168 154.478 29.127 154.812H30.9795V154.765C30.9613 154.443 30.8747 154.195 30.7197 154.02C30.5648 153.842 30.3551 153.753 30.0908 153.753ZM34.1343 153.869C34.0386 153.853 33.9349 153.845 33.8232 153.845C33.4085 153.845 33.1271 154.022 32.979 154.375V157H32.3467V153.302H32.9619L32.9722 153.729C33.1795 153.399 33.4735 153.233 33.854 153.233C33.9771 153.233 34.0705 153.249 34.1343 153.281V153.869ZM36.0005 156.142L36.9165 153.302H37.5625L36.2363 157H35.7544L34.4146 153.302H35.0605L36.0005 156.142ZM38.8579 157H38.2256V153.302H38.8579V157ZM38.1743 152.321C38.1743 152.218 38.2051 152.132 38.2666 152.061C38.3304 151.99 38.4238 151.955 38.5469 151.955C38.6699 151.955 38.7633 151.99 38.8271 152.061C38.891 152.132 38.9229 152.218 38.9229 152.321C38.9229 152.423 38.891 152.509 38.8271 152.577C38.7633 152.646 38.6699 152.68 38.5469 152.68C38.4238 152.68 38.3304 152.646 38.2666 152.577C38.2051 152.509 38.1743 152.423 38.1743 152.321ZM41.3564 156.552C41.582 156.552 41.7791 156.484 41.9478 156.347C42.1164 156.21 42.2098 156.04 42.228 155.834H42.8262C42.8148 156.046 42.7419 156.248 42.6074 156.439C42.473 156.631 42.293 156.784 42.0674 156.897C41.8441 157.011 41.6071 157.068 41.3564 157.068C40.8529 157.068 40.4518 156.901 40.1533 156.566C39.8571 156.229 39.709 155.768 39.709 155.185V155.079C39.709 154.719 39.7751 154.399 39.9072 154.119C40.0394 153.838 40.2285 153.621 40.4746 153.466C40.723 153.311 41.0158 153.233 41.353 153.233C41.7677 153.233 42.1118 153.358 42.3853 153.606C42.661 153.854 42.8079 154.177 42.8262 154.573H42.228C42.2098 154.334 42.1187 154.138 41.9546 153.985C41.7928 153.83 41.5923 153.753 41.353 153.753C41.0317 153.753 40.7822 153.869 40.6045 154.102C40.429 154.332 40.3413 154.666 40.3413 155.103V155.223C40.3413 155.649 40.429 155.977 40.6045 156.207C40.7799 156.437 41.0306 156.552 41.3564 156.552ZM45.0718 157.068C44.5705 157.068 44.1626 156.904 43.8481 156.576C43.5337 156.246 43.3765 155.805 43.3765 155.253V155.137C43.3765 154.77 43.446 154.443 43.585 154.156C43.7262 153.867 43.9222 153.641 44.1729 153.479C44.4258 153.315 44.6992 153.233 44.9932 153.233C45.474 153.233 45.8477 153.392 46.1143 153.708C46.3809 154.025 46.5142 154.479 46.5142 155.069V155.332H44.0088C44.0179 155.697 44.1239 155.992 44.3267 156.217C44.5317 156.441 44.7915 156.552 45.106 156.552C45.3293 156.552 45.5184 156.507 45.6733 156.416C45.8283 156.324 45.9639 156.204 46.0801 156.053L46.4663 156.354C46.1564 156.83 45.6916 157.068 45.0718 157.068ZM44.9932 153.753C44.738 153.753 44.5238 153.846 44.3506 154.033C44.1774 154.218 44.0703 154.478 44.0293 154.812H45.8818V154.765C45.8636 154.443 45.777 154.195 45.6221 154.02C45.4671 153.842 45.2575 153.753 44.9932 153.753ZM49.4023 156.019C49.4023 155.848 49.3374 155.716 49.2075 155.623C49.0799 155.527 48.8555 155.445 48.5342 155.376C48.2152 155.308 47.9611 155.226 47.772 155.13C47.5851 155.035 47.4461 154.921 47.355 154.789C47.2661 154.656 47.2217 154.499 47.2217 154.317C47.2217 154.014 47.3493 153.757 47.6045 153.548C47.862 153.338 48.1901 153.233 48.5889 153.233C49.0081 153.233 49.3477 153.342 49.6074 153.558C49.8695 153.775 50.0005 154.051 50.0005 154.389H49.3647C49.3647 154.215 49.2907 154.066 49.1426 153.941C48.9967 153.816 48.8122 153.753 48.5889 153.753C48.3587 153.753 48.1787 153.803 48.0488 153.903C47.9189 154.004 47.854 154.135 47.854 154.296C47.854 154.449 47.9144 154.564 48.0352 154.642C48.1559 154.719 48.3735 154.793 48.688 154.864C49.0047 154.934 49.2611 155.019 49.457 155.117C49.653 155.215 49.7977 155.333 49.8911 155.472C49.9868 155.609 50.0347 155.776 50.0347 155.975C50.0347 156.305 49.9025 156.57 49.6382 156.771C49.3739 156.969 49.0309 157.068 48.6094 157.068C48.3132 157.068 48.0511 157.016 47.8232 156.911C47.5954 156.806 47.4165 156.66 47.2866 156.474C47.159 156.285 47.0952 156.081 47.0952 155.862H47.7275C47.7389 156.074 47.8232 156.242 47.9805 156.368C48.14 156.491 48.3496 156.552 48.6094 156.552C48.8486 156.552 49.04 156.504 49.1836 156.409C49.3294 156.311 49.4023 156.181 49.4023 156.019Z" fill="white"/>
</svg>
